<mxfile host="app.diagrams.net" agent="Mozilla/5.0 (Macintosh; Intel Mac OS X 10_15_7) AppleWebKit/537.36 (KHTML, like Gecko) Chrome/137.0.0.0 Safari/537.36" version="28.0.6">
  <diagram id="use_case_customer_diagram" name="Page-1">
    <mxGraphModel dx="2013" dy="795" grid="1" gridSize="10" guides="1" tooltips="1" connect="1" arrows="1" fold="1" page="1" pageScale="1" pageWidth="827" pageHeight="1169" math="0" shadow="0">
      <root>
        <mxCell id="0" />
        <mxCell id="1" parent="0" />
        <mxCell id="system_boundary" value="Hệ thống Quản lý Luna Bakery" style="shape=rectangle;labelPosition=top;verticalLabelPosition=bottom;align=center;verticalAlign=top;whiteSpace=wrap;fillColor=none;fontSize=20;labelBackgroundColor=none;strokeColor=#0F8B8D;fontColor=#143642;" parent="1" vertex="1">
          <mxGeometry x="-70" y="20" width="810" height="1190" as="geometry" />
        </mxCell>
        <mxCell id="customer_actor" value="Khách hàng" style="shape=umlActor;verticalLabelPosition=bottom;verticalAlign=top;html=1;labelBackgroundColor=none;fillColor=#FAE5C7;strokeColor=#0F8B8D;fontColor=#143642;" parent="1" vertex="1">
          <mxGeometry x="-170" y="250" width="30" height="60" as="geometry" />
        </mxCell>
        <mxCell id="pOwzvyj6JEWEIcj3ehGx-12" style="rounded=0;orthogonalLoop=1;jettySize=auto;html=1;exitX=1;exitY=0.3333333333333333;exitDx=0;exitDy=0;exitPerimeter=0;entryX=0;entryY=0.5;entryDx=0;entryDy=0;fillColor=#f8cecc;strokeColor=#b85450;endArrow=none;endFill=0;" edge="1" parent="1" source="guest_actor" target="pOwzvyj6JEWEIcj3ehGx-3">
          <mxGeometry relative="1" as="geometry" />
        </mxCell>
        <mxCell id="guest_actor" value="Khách hàng vãng lai" style="shape=umlActor;verticalLabelPosition=bottom;verticalAlign=top;html=1;labelBackgroundColor=none;fillColor=#FAE5C7;strokeColor=#0F8B8D;fontColor=#143642;" parent="1" vertex="1">
          <mxGeometry x="-170" y="590" width="30" height="60" as="geometry" />
        </mxCell>
        <mxCell id="generalization_guest_customer" value="" style="endArrow=none;endSize=12;endFill=0;html=1;rounded=0;exitX=0.5;exitY=0;exitDx=0;exitDy=0;entryX=0.5;entryY=1;entryDx=0;entryDy=0;startFill=0;startArrow=block;labelBackgroundColor=none;strokeColor=#A8201A;fontColor=default;" parent="1" source="guest_actor" target="customer_actor" edge="1">
          <mxGeometry width="160" height="100" relative="1" as="geometry">
            <mxPoint x="1100" y="1060" as="sourcePoint" />
            <mxPoint x="1110" y="1010" as="targetPoint" />
          </mxGeometry>
        </mxCell>
        <mxCell id="uc_view_products" value="Xem nguyên liệu" style="ellipse;whiteSpace=wrap;html=1;labelBackgroundColor=none;fillColor=#FAE5C7;strokeColor=#0F8B8D;fontColor=#143642;" parent="1" vertex="1">
          <mxGeometry x="85" y="1002.5" width="120" height="50" as="geometry" />
        </mxCell>
        <mxCell id="uc_view_product_details" value="Xem thông tin nguyên liệu" style="ellipse;whiteSpace=wrap;html=1;labelBackgroundColor=none;fillColor=#FAE5C7;strokeColor=#0F8B8D;fontColor=#143642;" parent="1" vertex="1">
          <mxGeometry x="460" y="989.9999999999998" width="160" height="50" as="geometry" />
        </mxCell>
        <mxCell id="uc_filter_products" value="Lọc nguyên liệu&lt;div&gt;(theo loại banh,hương vị,size,giá bán)&lt;/div&gt;" style="ellipse;whiteSpace=wrap;html=1;labelBackgroundColor=none;fillColor=#FAE5C7;strokeColor=#0F8B8D;fontColor=#143642;" parent="1" vertex="1">
          <mxGeometry x="230" y="1127.5" width="160" height="60" as="geometry" />
        </mxCell>
        <mxCell id="uc_sort_products" value="Sắp xếp nguyên liệu&lt;br&gt;(theo giá cao,thấp,phổ biến)" style="ellipse;whiteSpace=wrap;html=1;labelBackgroundColor=none;fillColor=#FAE5C7;strokeColor=#0F8B8D;fontColor=#143642;" parent="1" vertex="1">
          <mxGeometry x="-10" y="1132.5" width="190" height="50" as="geometry" />
        </mxCell>
        <mxCell id="uc_search_products" value="Tìm kiếm sản phẩm trên toàn hệ thống(giọng nói)" style="ellipse;whiteSpace=wrap;html=1;labelBackgroundColor=none;fillColor=#FAE5C7;strokeColor=#0F8B8D;fontColor=#143642;" parent="1" vertex="1">
          <mxGeometry x="-30" y="420" width="175" height="70" as="geometry" />
        </mxCell>
        <mxCell id="uc_find_products" value="Tìm nguyên liệu" style="ellipse;whiteSpace=wrap;html=1;labelBackgroundColor=none;fillColor=#FAE5C7;strokeColor=#0F8B8D;fontColor=#143642;" parent="1" vertex="1">
          <mxGeometry x="295" y="1052.5" width="140" height="40" as="geometry" />
        </mxCell>
        <mxCell id="uc_register" value="Đăng ký tài khoản" style="ellipse;whiteSpace=wrap;html=1;labelBackgroundColor=none;fillColor=#FAE5C7;strokeColor=#0F8B8D;fontColor=#143642;" parent="1" vertex="1">
          <mxGeometry x="80" y="115" width="120" height="50" as="geometry" />
        </mxCell>
        <mxCell id="uc_login" value="Đăng nhập mật khẩu hoặc Google" style="ellipse;whiteSpace=wrap;html=1;labelBackgroundColor=none;fillColor=#FAE5C7;strokeColor=#0F8B8D;fontColor=#143642;" parent="1" vertex="1">
          <mxGeometry x="250" y="680" width="160" height="50" as="geometry" />
        </mxCell>
        <mxCell id="uc_logout" value="Đăng xuất" style="ellipse;whiteSpace=wrap;html=1;labelBackgroundColor=none;fillColor=#FAE5C7;strokeColor=#0F8B8D;fontColor=#143642;" parent="1" vertex="1">
          <mxGeometry x="485" y="670" width="120" height="50" as="geometry" />
        </mxCell>
        <mxCell id="uc_update_profile" value="Cập nhật thông tin cá nhân" style="ellipse;whiteSpace=wrap;html=1;labelBackgroundColor=none;fillColor=#FAE5C7;strokeColor=#0F8B8D;fontColor=#143642;" parent="1" vertex="1">
          <mxGeometry x="80" y="265" width="160" height="50" as="geometry" />
        </mxCell>
        <mxCell id="uc_view_order_history" value="Xem lịch sử đơn hàng" style="ellipse;whiteSpace=wrap;html=1;labelBackgroundColor=none;fillColor=#FAE5C7;strokeColor=#0F8B8D;fontColor=#143642;" parent="1" vertex="1">
          <mxGeometry x="80" y="45" width="120" height="50" as="geometry" />
        </mxCell>
        <mxCell id="uc_order_details" value="Đơn hàng chi tiết" style="ellipse;whiteSpace=wrap;html=1;labelBackgroundColor=none;fillColor=#FAE5C7;strokeColor=#0F8B8D;fontColor=#143642;" parent="1" vertex="1">
          <mxGeometry x="330" y="45" width="120" height="50" as="geometry" />
        </mxCell>
        <mxCell id="uc_add_to_cart" value="Thêm sản phẩm vào giỏ hàng" style="ellipse;whiteSpace=wrap;html=1;labelBackgroundColor=none;fillColor=#FAE5C7;strokeColor=#0F8B8D;fontColor=#143642;" parent="1" vertex="1">
          <mxGeometry x="80" y="350" width="120" height="50" as="geometry" />
        </mxCell>
        <mxCell id="uc_place_order" value="Đặt hàng" style="ellipse;whiteSpace=wrap;html=1;labelBackgroundColor=none;fillColor=#FAE5C7;strokeColor=#0F8B8D;fontColor=#143642;" parent="1" vertex="1">
          <mxGeometry x="385" y="290" width="120" height="50" as="geometry" />
        </mxCell>
        <mxCell id="uc_payment" value="Thanh toán" style="ellipse;whiteSpace=wrap;html=1;labelBackgroundColor=none;fillColor=#FAE5C7;strokeColor=#0F8B8D;fontColor=#143642;" parent="1" vertex="1">
          <mxGeometry x="585" y="290" width="120" height="50" as="geometry" />
        </mxCell>
        <mxCell id="conn_guest_view_products" value="" style="endArrow=none;html=1;labelBackgroundColor=none;strokeColor=#A8201A;fontColor=default;exitX=1;exitY=0.3333333333333333;exitDx=0;exitDy=0;exitPerimeter=0;" parent="1" source="guest_actor" target="uc_view_products" edge="1">
          <mxGeometry width="50" height="50" relative="1" as="geometry">
            <mxPoint x="760" y="585" as="sourcePoint" />
            <mxPoint x="810" y="535" as="targetPoint" />
          </mxGeometry>
        </mxCell>
        <mxCell id="conn_customer_search" value="" style="endArrow=none;html=1;labelBackgroundColor=none;strokeColor=#A8201A;fontColor=default;exitX=1;exitY=0.3333333333333333;exitDx=0;exitDy=0;exitPerimeter=0;" parent="1" source="guest_actor" target="uc_search_products" edge="1">
          <mxGeometry width="50" height="50" relative="1" as="geometry">
            <mxPoint x="760" y="485" as="sourcePoint" />
            <mxPoint x="810" y="435" as="targetPoint" />
          </mxGeometry>
        </mxCell>
        <mxCell id="conn_customer_register" value="" style="endArrow=none;html=1;labelBackgroundColor=none;strokeColor=#A8201A;fontColor=default;" parent="1" source="customer_actor" target="uc_register" edge="1">
          <mxGeometry width="50" height="50" relative="1" as="geometry">
            <mxPoint x="760" y="485" as="sourcePoint" />
            <mxPoint x="810" y="435" as="targetPoint" />
          </mxGeometry>
        </mxCell>
        <mxCell id="conn_customer_login" value="" style="endArrow=none;html=1;labelBackgroundColor=none;strokeColor=#A8201A;fontColor=default;exitX=1;exitY=0.3333333333333333;exitDx=0;exitDy=0;exitPerimeter=0;" parent="1" source="guest_actor" target="uc_login" edge="1">
          <mxGeometry width="50" height="50" relative="1" as="geometry">
            <mxPoint x="-140" y="620" as="sourcePoint" />
            <mxPoint x="980" y="915" as="targetPoint" />
          </mxGeometry>
        </mxCell>
        <mxCell id="conn_customer_update_profile" value="" style="endArrow=none;html=1;labelBackgroundColor=none;strokeColor=#A8201A;fontColor=default;" parent="1" source="customer_actor" target="uc_update_profile" edge="1">
          <mxGeometry width="50" height="50" relative="1" as="geometry">
            <mxPoint x="760" y="485" as="sourcePoint" />
            <mxPoint x="810" y="435" as="targetPoint" />
          </mxGeometry>
        </mxCell>
        <mxCell id="conn_customer_order_history" value="" style="endArrow=none;html=1;labelBackgroundColor=none;strokeColor=#A8201A;fontColor=default;" parent="1" source="customer_actor" target="uc_view_order_history" edge="1">
          <mxGeometry width="50" height="50" relative="1" as="geometry">
            <mxPoint x="760" y="485" as="sourcePoint" />
            <mxPoint x="810" y="435" as="targetPoint" />
          </mxGeometry>
        </mxCell>
        <mxCell id="conn_customer_add_to_cart" value="" style="endArrow=none;html=1;labelBackgroundColor=none;strokeColor=#A8201A;fontColor=default;" parent="1" source="customer_actor" target="uc_add_to_cart" edge="1">
          <mxGeometry width="50" height="50" relative="1" as="geometry">
            <mxPoint x="760" y="485" as="sourcePoint" />
            <mxPoint x="810" y="435" as="targetPoint" />
          </mxGeometry>
        </mxCell>
        <mxCell id="include_login_logout" value="include" style="endArrow=open;endSize=12;dashed=1;html=1;rounded=0;hachureGap=4;fontFamily=Architects Daughter;fontSource=https%3A%2F%2Ffonts.googleapis.com%2Fcss%3Ffamily%3DArchitects%2BDaughter;endFill=0;exitX=1;exitY=0.5;exitDx=0;exitDy=0;entryX=0;entryY=0.5;entryDx=0;entryDy=0;labelBackgroundColor=none;strokeColor=#A8201A;fontColor=default;" parent="1" source="uc_login" target="uc_logout" edge="1">
          <mxGeometry width="160" relative="1" as="geometry">
            <mxPoint x="600" y="675" as="sourcePoint" />
          </mxGeometry>
        </mxCell>
        <mxCell id="include_order_payment" value="include" style="endArrow=open;endSize=12;dashed=1;html=1;rounded=0;hachureGap=4;fontFamily=Architects Daughter;fontSource=https%3A%2F%2Ffonts.googleapis.com%2Ffamily%3DArchitects%2BDaughter;endFill=0;exitX=1;exitY=0.5;exitDx=0;exitDy=0;entryX=0;entryY=0.34;entryDx=0;entryDy=0;entryPerimeter=0;labelBackgroundColor=none;strokeColor=#A8201A;fontColor=default;" parent="1" source="uc_place_order" target="uc_payment" edge="1">
          <mxGeometry width="160" relative="1" as="geometry">
            <mxPoint x="365" y="500" as="sourcePoint" />
            <mxPoint x="525" y="500" as="targetPoint" />
          </mxGeometry>
        </mxCell>
        <mxCell id="extends_add_to_cart_order" value="Extends" style="endArrow=open;endSize=16;endFill=0;html=1;rounded=0;hachureGap=4;fontFamily=Architects Daughter;fontSource=https%3A%2F%2Ffonts.googleapis.com%2Fcss%3Ffamily%3DArchitects%2BDaughter;entryX=0;entryY=0.5;entryDx=0;entryDy=0;labelBackgroundColor=none;strokeColor=#A8201A;fontColor=default;dashed=1;exitX=1;exitY=0.5;exitDx=0;exitDy=0;" parent="1" source="uc_add_to_cart" target="uc_place_order" edge="1">
          <mxGeometry width="160" relative="1" as="geometry">
            <mxPoint x="430" y="500" as="sourcePoint" />
            <mxPoint x="590" y="500" as="targetPoint" />
          </mxGeometry>
        </mxCell>
        <mxCell id="extends_view_details" value="Extends" style="endArrow=open;endSize=12;dashed=1;html=1;rounded=0;hachureGap=4;fontFamily=Architects Daughter;fontSource=https%3A%2F%2Ffonts.googleapis.com%2Fcss%3Ffamily%3DArchitects%2BDaughter;endFill=0;exitX=1;exitY=0.5;exitDx=0;exitDy=0;entryX=0.031;entryY=0.67;entryDx=0;entryDy=0;labelBackgroundColor=none;strokeColor=#A8201A;entryPerimeter=0;" parent="1" source="uc_view_products" target="uc_view_product_details" edge="1">
          <mxGeometry relative="1" as="geometry">
            <mxPoint x="167" y="899.16" as="sourcePoint" />
          </mxGeometry>
        </mxCell>
        <mxCell id="extends_find_products" value="Extends" style="endArrow=open;endSize=12;dashed=1;html=1;rounded=0;hachureGap=4;fontFamily=Architects Daughter;fontSource=https%3A%2F%2Ffonts.googleapis.com%2Fcss%3Ffamily%3DArchitects%2BDaughter;endFill=0;exitX=1;exitY=0.5;exitDx=0;exitDy=0;entryX=0;entryY=0.5;entryDx=0;entryDy=0;dashed=1;endArrow=open;endFill=0;strokeColor=#A8201A;" parent="1" source="uc_view_products" target="uc_find_products" edge="1">
          <mxGeometry relative="1" as="geometry">
            <mxPoint x="165" y="1287.5" as="sourcePoint" />
            <mxPoint x="220" y="1222.5" as="targetPoint" />
          </mxGeometry>
        </mxCell>
        <mxCell id="extends_order_details" value="Extends" style="endArrow=open;endSize=12;dashed=1;html=1;rounded=0;hachureGap=4;fontFamily=Architects Daughter;fontSource=https%3A%2F%2Ffonts.googleapis.com%2Fcss%3Ffamily%3DArchitects%2BDaughter;endFill=0;exitX=1;exitY=0.5;exitDx=0;exitDy=0;entryX=0;entryY=0.5;entryDx=0;entryDy=0;labelBackgroundColor=none;strokeColor=#A8201A;" parent="1" source="uc_view_order_history" target="uc_order_details" edge="1">
          <mxGeometry width="160" relative="1" as="geometry">
            <mxPoint x="290" y="70" as="sourcePoint" />
            <mxPoint x="360" y="92" as="targetPoint" />
          </mxGeometry>
        </mxCell>
        <mxCell id="dawNsnhaz4Br6hOezqq4-2" value="Liên hệ&amp;nbsp;" style="ellipse;whiteSpace=wrap;html=1;labelBackgroundColor=none;fillColor=#FAE5C7;strokeColor=#0F8B8D;fontColor=#143642;" parent="1" vertex="1">
          <mxGeometry x="600" y="390" width="140" height="50" as="geometry" />
        </mxCell>
        <mxCell id="dawNsnhaz4Br6hOezqq4-3" value="" style="endArrow=none;html=1;labelBackgroundColor=none;strokeColor=#A8201A;fontColor=default;exitX=1;exitY=0.3333333333333333;exitDx=0;exitDy=0;exitPerimeter=0;entryX=0;entryY=0.5;entryDx=0;entryDy=0;" parent="1" source="guest_actor" target="dawNsnhaz4Br6hOezqq4-2" edge="1">
          <mxGeometry width="50" height="50" relative="1" as="geometry">
            <mxPoint x="-60" y="600" as="sourcePoint" />
            <mxPoint x="201" y="757" as="targetPoint" />
          </mxGeometry>
        </mxCell>
        <mxCell id="extends_filter_products" value="Extends" style="endArrow=open;endSize=12;dashed=1;html=1;rounded=0;hachureGap=4;fontFamily=Architects Daughter;fontSource=https%3A%2F%2Ffonts.googleapis.com%2Fcss%3Ffamily%3DArchitects%2BDaughter;endFill=0;exitX=1;exitY=1;exitDx=0;exitDy=0;entryX=0.05;entryY=0.233;entryDx=0;entryDy=0;labelBackgroundColor=none;strokeColor=#A8201A;entryPerimeter=0;" parent="1" source="uc_view_products" target="uc_filter_products" edge="1">
          <mxGeometry relative="1" as="geometry">
            <mxPoint x="280" y="945" as="sourcePoint" />
            <mxPoint x="470" y="850" as="targetPoint" />
          </mxGeometry>
        </mxCell>
        <mxCell id="extends_sort_products" value="Extends" style="endArrow=open;endSize=12;dashed=1;html=1;rounded=0;hachureGap=4;fontFamily=Architects Daughter;fontSource=https%3A%2F%2Ffonts.googleapis.com%2Fcss%3Ffamily%3DArchitects%2BDaughter;endFill=0;exitX=0.5;exitY=1;exitDx=0;exitDy=0;entryX=0.5;entryY=0;entryDx=0;entryDy=0;labelBackgroundColor=none;strokeColor=#A8201A;" parent="1" source="uc_view_products" target="uc_sort_products" edge="1">
          <mxGeometry relative="1" as="geometry">
            <mxPoint x="120" y="900" as="sourcePoint" />
            <mxPoint x="286" y="1001" as="targetPoint" />
          </mxGeometry>
        </mxCell>
        <mxCell id="pOwzvyj6JEWEIcj3ehGx-1" value="ChatBot" style="ellipse;whiteSpace=wrap;html=1;labelBackgroundColor=none;fillColor=#FAE5C7;strokeColor=#0F8B8D;fontColor=#143642;" vertex="1" parent="1">
          <mxGeometry x="414" y="380" width="140" height="50" as="geometry" />
        </mxCell>
        <mxCell id="pOwzvyj6JEWEIcj3ehGx-2" value="" style="endArrow=none;html=1;labelBackgroundColor=none;strokeColor=#A8201A;fontColor=default;exitX=1;exitY=0.3333333333333333;exitDx=0;exitDy=0;exitPerimeter=0;entryX=0;entryY=0.5;entryDx=0;entryDy=0;" edge="1" parent="1" source="guest_actor" target="pOwzvyj6JEWEIcj3ehGx-1">
          <mxGeometry width="50" height="50" relative="1" as="geometry">
            <mxPoint x="-20" y="570" as="sourcePoint" />
            <mxPoint x="215" y="645" as="targetPoint" />
          </mxGeometry>
        </mxCell>
        <mxCell id="pOwzvyj6JEWEIcj3ehGx-3" value="Xem sản phẩm bánh" style="ellipse;whiteSpace=wrap;html=1;labelBackgroundColor=none;fillColor=#FAE5C7;strokeColor=#0F8B8D;fontColor=#143642;" vertex="1" parent="1">
          <mxGeometry x="165" y="802.5000000000002" width="120" height="50" as="geometry" />
        </mxCell>
        <mxCell id="pOwzvyj6JEWEIcj3ehGx-4" value="Xem sản phẩm chi tiết" style="ellipse;whiteSpace=wrap;html=1;labelBackgroundColor=none;fillColor=#FAE5C7;strokeColor=#0F8B8D;fontColor=#143642;" vertex="1" parent="1">
          <mxGeometry x="405" y="740" width="160" height="50" as="geometry" />
        </mxCell>
        <mxCell id="pOwzvyj6JEWEIcj3ehGx-5" value="Lọc sản phẩm&lt;br&gt;(theo loại banh,hương vị,size,giá bán)" style="ellipse;whiteSpace=wrap;html=1;labelBackgroundColor=none;fillColor=#FAE5C7;strokeColor=#0F8B8D;fontColor=#143642;" vertex="1" parent="1">
          <mxGeometry x="394" y="900.0000000000002" width="160" height="60" as="geometry" />
        </mxCell>
        <mxCell id="pOwzvyj6JEWEIcj3ehGx-6" value="Sắp xếp sản phẩm&lt;br&gt;(theo giá cao,thấp,phổ biến)" style="ellipse;whiteSpace=wrap;html=1;labelBackgroundColor=none;fillColor=#FAE5C7;strokeColor=#0F8B8D;fontColor=#143642;" vertex="1" parent="1">
          <mxGeometry x="150" y="930.0000000000002" width="190" height="50" as="geometry" />
        </mxCell>
        <mxCell id="pOwzvyj6JEWEIcj3ehGx-7" value="Tìm sản phẩm" style="ellipse;whiteSpace=wrap;html=1;labelBackgroundColor=none;fillColor=#FAE5C7;strokeColor=#0F8B8D;fontColor=#143642;" vertex="1" parent="1">
          <mxGeometry x="460" y="835.0000000000002" width="140" height="40" as="geometry" />
        </mxCell>
        <mxCell id="pOwzvyj6JEWEIcj3ehGx-8" value="Extends" style="endArrow=open;endSize=12;dashed=1;html=1;rounded=0;hachureGap=4;fontFamily=Architects Daughter;fontSource=https%3A%2F%2Ffonts.googleapis.com%2Fcss%3Ffamily%3DArchitects%2BDaughter;endFill=0;exitX=1;exitY=0.5;exitDx=0;exitDy=0;entryX=0.031;entryY=0.67;entryDx=0;entryDy=0;labelBackgroundColor=none;strokeColor=#A8201A;entryPerimeter=0;" edge="1" parent="1" source="pOwzvyj6JEWEIcj3ehGx-3" target="pOwzvyj6JEWEIcj3ehGx-4">
          <mxGeometry relative="1" as="geometry">
            <mxPoint x="257" y="689.1600000000002" as="sourcePoint" />
          </mxGeometry>
        </mxCell>
        <mxCell id="pOwzvyj6JEWEIcj3ehGx-9" value="Extends" style="endArrow=open;endSize=12;dashed=1;html=1;rounded=0;hachureGap=4;fontFamily=Architects Daughter;fontSource=https%3A%2F%2Ffonts.googleapis.com%2Fcss%3Ffamily%3DArchitects%2BDaughter;endFill=0;exitX=1;exitY=0.5;exitDx=0;exitDy=0;entryX=0;entryY=0.5;entryDx=0;entryDy=0;dashed=1;endArrow=open;endFill=0;strokeColor=#A8201A;" edge="1" parent="1" source="pOwzvyj6JEWEIcj3ehGx-3" target="pOwzvyj6JEWEIcj3ehGx-7">
          <mxGeometry relative="1" as="geometry">
            <mxPoint x="255" y="1077.5000000000002" as="sourcePoint" />
            <mxPoint x="310" y="1012.5000000000002" as="targetPoint" />
          </mxGeometry>
        </mxCell>
        <mxCell id="pOwzvyj6JEWEIcj3ehGx-10" value="Extends" style="endArrow=open;endSize=12;dashed=1;html=1;rounded=0;hachureGap=4;fontFamily=Architects Daughter;fontSource=https%3A%2F%2Ffonts.googleapis.com%2Fcss%3Ffamily%3DArchitects%2BDaughter;endFill=0;exitX=1;exitY=1;exitDx=0;exitDy=0;entryX=0.05;entryY=0.233;entryDx=0;entryDy=0;labelBackgroundColor=none;strokeColor=#A8201A;entryPerimeter=0;" edge="1" parent="1" source="pOwzvyj6JEWEIcj3ehGx-3" target="pOwzvyj6JEWEIcj3ehGx-5">
          <mxGeometry relative="1" as="geometry">
            <mxPoint x="370" y="735.0000000000002" as="sourcePoint" />
            <mxPoint x="560" y="640.0000000000002" as="targetPoint" />
          </mxGeometry>
        </mxCell>
        <mxCell id="pOwzvyj6JEWEIcj3ehGx-11" value="Extends" style="endArrow=open;endSize=12;dashed=1;html=1;rounded=0;hachureGap=4;fontFamily=Architects Daughter;fontSource=https%3A%2F%2Ffonts.googleapis.com%2Fcss%3Ffamily%3DArchitects%2BDaughter;endFill=0;exitX=0.5;exitY=1;exitDx=0;exitDy=0;entryX=0.5;entryY=0;entryDx=0;entryDy=0;labelBackgroundColor=none;strokeColor=#A8201A;" edge="1" parent="1" source="pOwzvyj6JEWEIcj3ehGx-3" target="pOwzvyj6JEWEIcj3ehGx-6">
          <mxGeometry relative="1" as="geometry">
            <mxPoint x="210" y="690.0000000000002" as="sourcePoint" />
            <mxPoint x="376" y="791.0000000000002" as="targetPoint" />
          </mxGeometry>
        </mxCell>
        <mxCell id="pOwzvyj6JEWEIcj3ehGx-13" value="Danh sách yêu thích&amp;nbsp;" style="ellipse;whiteSpace=wrap;html=1;labelBackgroundColor=none;fillColor=#FAE5C7;strokeColor=#0F8B8D;fontColor=#143642;" vertex="1" parent="1">
          <mxGeometry x="155" y="580" width="140" height="50" as="geometry" />
        </mxCell>
        <mxCell id="pOwzvyj6JEWEIcj3ehGx-14" value="Thêm sản phẩm yêu thích" style="ellipse;whiteSpace=wrap;html=1;labelBackgroundColor=none;fillColor=#FAE5C7;strokeColor=#0F8B8D;fontColor=#143642;" vertex="1" parent="1">
          <mxGeometry x="344" y="510" width="140" height="50" as="geometry" />
        </mxCell>
        <mxCell id="pOwzvyj6JEWEIcj3ehGx-15" value="Xoá sản phẩm yêu thích" style="ellipse;whiteSpace=wrap;html=1;labelBackgroundColor=none;fillColor=#FAE5C7;strokeColor=#0F8B8D;fontColor=#143642;" vertex="1" parent="1">
          <mxGeometry x="385" y="585" width="140" height="50" as="geometry" />
        </mxCell>
        <mxCell id="pOwzvyj6JEWEIcj3ehGx-16" value="Sửa thông tin" style="ellipse;whiteSpace=wrap;html=1;labelBackgroundColor=none;fillColor=#FAE5C7;strokeColor=#0F8B8D;fontColor=#143642;" vertex="1" parent="1">
          <mxGeometry x="330" y="215" width="120" height="50" as="geometry" />
        </mxCell>
        <mxCell id="pOwzvyj6JEWEIcj3ehGx-17" value="" style="endArrow=none;html=1;labelBackgroundColor=none;strokeColor=#A8201A;fontColor=default;exitX=1;exitY=0.3333333333333333;exitDx=0;exitDy=0;exitPerimeter=0;entryX=0;entryY=0.5;entryDx=0;entryDy=0;" edge="1" parent="1" source="guest_actor" target="pOwzvyj6JEWEIcj3ehGx-13">
          <mxGeometry width="50" height="50" relative="1" as="geometry">
            <mxPoint x="40" y="610" as="sourcePoint" />
            <mxPoint x="443" y="691" as="targetPoint" />
          </mxGeometry>
        </mxCell>
        <mxCell id="pOwzvyj6JEWEIcj3ehGx-18" value="Extends" style="endArrow=open;endSize=12;dashed=1;html=1;rounded=0;hachureGap=4;fontFamily=Architects Daughter;fontSource=https%3A%2F%2Ffonts.googleapis.com%2Fcss%3Ffamily%3DArchitects%2BDaughter;endFill=0;exitX=1;exitY=0.5;exitDx=0;exitDy=0;entryX=0;entryY=1;entryDx=0;entryDy=0;labelBackgroundColor=none;strokeColor=#A8201A;" edge="1" parent="1" source="pOwzvyj6JEWEIcj3ehGx-13" target="pOwzvyj6JEWEIcj3ehGx-14">
          <mxGeometry relative="1" as="geometry">
            <mxPoint x="280" y="584" as="sourcePoint" />
            <mxPoint x="405" y="530" as="targetPoint" />
          </mxGeometry>
        </mxCell>
        <mxCell id="pOwzvyj6JEWEIcj3ehGx-19" value="Extends" style="endArrow=open;endSize=12;dashed=1;html=1;rounded=0;hachureGap=4;fontFamily=Architects Daughter;fontSource=https%3A%2F%2Ffonts.googleapis.com%2Fcss%3Ffamily%3DArchitects%2BDaughter;endFill=0;exitX=1;exitY=0.5;exitDx=0;exitDy=0;entryX=0;entryY=0.5;entryDx=0;entryDy=0;labelBackgroundColor=none;strokeColor=#A8201A;" edge="1" parent="1" source="pOwzvyj6JEWEIcj3ehGx-13" target="pOwzvyj6JEWEIcj3ehGx-15">
          <mxGeometry relative="1" as="geometry">
            <mxPoint x="250" y="702" as="sourcePoint" />
            <mxPoint x="320" y="650" as="targetPoint" />
          </mxGeometry>
        </mxCell>
        <mxCell id="pOwzvyj6JEWEIcj3ehGx-20" value="Extends" style="endArrow=open;endSize=12;dashed=1;html=1;rounded=0;hachureGap=4;fontFamily=Architects Daughter;fontSource=https%3A%2F%2Ffonts.googleapis.com%2Fcss%3Ffamily%3DArchitects%2BDaughter;endFill=0;exitX=1;exitY=0.5;exitDx=0;exitDy=0;entryX=0;entryY=0.5;entryDx=0;entryDy=0;labelBackgroundColor=none;strokeColor=#A8201A;" edge="1" parent="1" source="uc_update_profile" target="pOwzvyj6JEWEIcj3ehGx-16">
          <mxGeometry relative="1" as="geometry">
            <mxPoint x="210" y="272" as="sourcePoint" />
            <mxPoint x="280" y="220" as="targetPoint" />
          </mxGeometry>
        </mxCell>
      </root>
    </mxGraphModel>
  </diagram>
</mxfile>
